<svg xmlns="http://www.w3.org/2000/svg" width="156.218" height="149.767" viewBox="0 0 156.218 149.767">
  <g id="icon_only_logo_giant-ai_color" transform="translate(1)">
    <path id="Pfad_96888" data-name="Pfad 96888" d="M156.214,122.974l.006,0-.006,0V66.353H90.767V104.87A30.763,30.763,0,1,1,83.626,44.2h.311c8.769,0,21.433,2.7,29.958,8.723l33.5-33.851A91.494,91.494,0,0,0,122.845,5.885a103.608,103.608,0,0,0-68.84,0A90.456,90.456,0,0,0,25.9,21.937a75.265,75.265,0,0,0-18.95,23.8,64.6,64.6,0,0,0,0,58.291,75.274,75.274,0,0,0,18.946,23.8A90.49,90.49,0,0,0,54,143.882a103.65,103.65,0,0,0,68.845,0,90.453,90.453,0,0,0,28.106-16.052c1.736-1.47,3.412-3.02,5-4.607h.261Z" transform="translate(-1 0)" fill="#6f91ff"/>
  </g>
</svg>
