<svg xmlns="http://www.w3.org/2000/svg" width="25.546" height="25.547" viewBox="0 0 25.546 25.547">
  <g id="icon_wallet_disconnect" transform="translate(6498.347 -18249.697)">
    <path id="Differenzmenge_1" data-name="Differenzmenge 1" d="M-4542.758,1390.275H-4560.6a2.4,2.4,0,0,1-2.4-2.4v-11.2a2.4,2.4,0,0,1,2.4-2.4h1.839l1.6,1.6h-3.442a.8.8,0,0,0-.8.8v11.2a.8.8,0,0,0,.8.8h16.239l1.6,1.6Zm3.28-.963h0l-1.17-1.17a.8.8,0,0,0,.046-.267v-11.2a.8.8,0,0,0-.8-.8h-11.516l-2.651-2.651,9.9-3.735a.8.8,0,0,1,.281-.051.8.8,0,0,1,.344.078.8.8,0,0,1,.412.471l1.414,4.285h1.817a2.4,2.4,0,0,1,2.4,2.4v11.2a2.376,2.376,0,0,1-.478,1.437Zm-6.378-18.006h0l-7.928,2.957h8.914l-.986-2.957Z" transform="translate(-1934.289 16880.6)" fill="#1c2d41"/>
    <line id="Linie_51" data-name="Linie 51" x2="23" y2="23" transform="translate(-6497.074 18250.971)" fill="none" stroke="#1c2d41" stroke-linecap="round" stroke-width="1.8"/>
  </g>
</svg>
