<?xml version="1.0" encoding="utf-8"?>
<!-- Generator: Adobe Illustrator 25.2.2, SVG Export Plug-In . SVG Version: 6.00 Build 0)  -->
<svg version="1.1" id="Ebene_1" xmlns="http://www.w3.org/2000/svg" xmlns:xlink="http://www.w3.org/1999/xlink" x="0px" y="0px"
	 viewBox="0 0 24 20.8" style="enable-background:new 0 0 24 20.8;" xml:space="preserve">
<g id="Gruppe_22034" transform="translate(-1631 -37)">
	<path id="Pfad_53839" d="M1633.4,57.8h19.2c1.3,0,2.4-1.1,2.4-2.4V44.2c0-1.3-1.1-2.4-2.4-2.4l0,0h-1.8l-1.4-4.3
		c-0.1-0.4-0.6-0.6-1-0.5c0,0,0,0,0,0l-12.7,4.8h-2.3c-1.3,0-2.4,1.1-2.4,2.4c0,0,0,0,0,0v11.2C1631,56.8,1632.1,57.8,1633.4,57.8
		L1633.4,57.8z M1648.1,38.9l1,3h-8.9L1648.1,38.9z M1632.6,44.2c0-0.4,0.4-0.8,0.8-0.8c0,0,0,0,0,0h19.2c0.4,0,0.8,0.4,0.8,0.8
		v11.2c0,0.4-0.4,0.8-0.8,0.8h-19.2c-0.4,0-0.8-0.4-0.8-0.8V44.2z"/>
	<path id="Pfad_53840" d="M1646.7,53.1h4.7c0.4,0,0.8-0.4,0.8-0.8c0-0.4-0.3-0.7-0.8-0.8h-4.7c-0.4,0-0.8-0.3-0.8-0.8v-1.6
		c0-0.4,0.3-0.8,0.8-0.8h4.7c0.4,0,0.8-0.4,0.8-0.8c0-0.4-0.3-0.7-0.8-0.8h-4.7c-1.3,0-2.3,1.1-2.3,2.3v1.6
		C1644.3,52.1,1645.4,53.1,1646.7,53.1L1646.7,53.1L1646.7,53.1z"/>
	<path id="Pfad_53841" d="M1646.6,50c0,0.4,0.3,0.8,0.8,0.8c0.4,0,0.8-0.3,0.8-0.8c0,0,0,0,0-0.1l0,0c0-0.4-0.3-0.8-0.8-0.8
		C1647,49.2,1646.7,49.5,1646.6,50C1646.6,50,1646.6,50,1646.6,50z"/>
</g>
</svg>
