<?xml version="1.0" encoding="utf-8"?>
<!-- Generator: Adobe Illustrator 24.3.0, SVG Export Plug-In . SVG Version: 6.00 Build 0)  -->
<svg version="1.0" id="Ebene_1" xmlns="http://www.w3.org/2000/svg" xmlns:xlink="http://www.w3.org/1999/xlink" x="0px" y="0px"
	 viewBox="0 0 968.1 309" style="enable-background:new 0 0 968.1 309;" xml:space="preserve">
<style type="text/css">
	.st0{fill:#1C2D41;}
	.st1{fill:#0000FF;}
</style>
<g id="Basic">
	<path class="st0" d="M702.9,199.1h-9.8c-5.3,0-9.7-4.3-9.7-9.7c0,0,0,0,0,0V78.5c0-2.7-2.2-4.8-4.8-4.8c0,0,0,0,0,0h-14.4
		c-2.7,0-4.8,2.2-4.8,4.8c0,0,0,0,0,0v115.6c0,16,13,29,29,29c0,0,0,0,0,0h14.5L702.9,199.1z"/>
	<path class="st0" d="M341.1,200.6c2.8-4.8,8.9-6.4,13.7-3.6c7.5,4.4,17.2,7.8,25.7,7.8c11.1,0,16.3-4,16.3-10.2
		c0-7.1-8.5-9.6-19.6-11.9c-16.8-3.3-38.4-7.5-38.4-31.6c0-16.9,14.3-31.8,40-31.8c10.8-0.1,21.4,2.6,30.8,7.9c4.9,2.7,6.7,9,4,13.9
		c0,0,0,0,0,0l0,0c-2.7,4.9-8.8,6.6-13.7,3.9c-6.4-3.6-13.6-5.5-20.9-5.5c-9.3,0-15.3,3.6-15.3,9.4c0,6.3,7.7,8.6,18.6,10.9
		c16.8,3.3,39.2,7.9,39.2,33c0,18.4-15.1,32.4-42.2,32.4c-13,0-25.6-3.4-35.5-9.5c-4.8-2.9-6.4-9.1-3.5-13.9L341.1,200.6z"/>
	<path class="st0" d="M434.3,256V127.6c0-3.2,2.6-5.7,5.7-5.7h14.1c3.2,0,5.7,2.6,5.7,5.7v7c7-9.6,18.2-15.3,30.1-15.3
		c25,0,43.2,19.2,43.2,52.9S515,225.2,490,225.2c-11.5,0-22.2-5-30.1-15.5V256c0,2.8-2.3,5.1-5.1,5.2h-15.3
		C436.6,261.2,434.3,258.9,434.3,256z M482,142.9c-8.3,0-17.8,5-22,11.5v35.8c4.2,6.3,13.7,11.5,22,11.5c14.7,0,24.6-11.9,24.6-29.5
		C506.6,154.8,496.7,142.9,482,142.9z"/>
	<path class="st0" d="M544.2,172.1c0-28.6,19.4-52.9,51.5-52.9c32.3,0,51.7,24.2,51.7,52.9c0,28.9-19.4,53.1-51.7,53.1
		C563.6,225.2,544.2,201,544.2,172.1z M620.7,172.1c0-15.7-9.1-29.3-25-29.3s-24.8,13.6-24.8,29.3c0,15.9,8.9,29.5,24.8,29.5
		S620.7,188,620.7,172.1z"/>
	<path class="st0" d="M294.8,88.7c0-8.8,7.1-15.9,15.3-15.9c8.8-0.3,16.1,6.6,16.4,15.3c0.3,8.8-6.6,16.1-15.3,16.4
		c-8.8,0.3-16.1-6.6-16.4-15.3C294.8,89.1,294.8,88.9,294.8,88.7z M310.2,121.8L310.2,121.8c7.1,0,12.8,5.7,12.8,12.8v83
		c0,2.8-2.3,5.1-5.1,5.2c0,0,0,0,0,0h-15.3c-2.8,0-5.2-2.3-5.2-5.2v-83C297.4,127.5,303.1,121.8,310.2,121.8L310.2,121.8z"/>
	<path class="st0" d="M714.4,88.7c0-8.8,7.1-15.9,15.3-15.9c8.8-0.3,16.1,6.6,16.4,15.3c0.3,8.8-6.6,16.1-15.3,16.4
		c-8.8,0.3-16.1-6.6-16.4-15.3C714.4,89.1,714.4,88.9,714.4,88.7z M729.8,121.8L729.8,121.8c7.1,0,12.8,5.7,12.8,12.8v83
		c0,2.8-2.3,5.1-5.1,5.2c0,0,0,0,0,0H717v-88.1C717,127.5,722.7,121.8,729.8,121.8z"/>
	<path class="st0" d="M826.9,163.4c0-14-7.1-20-18-20c-10.1,0-17.9,7.1-22.2,13.2V218c0,2.8-2.3,5.1-5.1,5.1c0,0,0,0,0,0h-15.3
		c-2.8,0-5.1-2.3-5.2-5.1c0,0,0,0,0,0v-91.2c0-2.8,2.3-5.2,5.2-5.2h15.3c2.8,0,5.2,2.3,5.2,5.2v8.6c6.3-7.7,18.2-13.5,34.1-13.5
		c21.4,0,31.7,12.6,31.7,32.2V218c0,2.8-2.3,5.1-5.2,5.1H832c-2.8,0-5.1-2.3-5.2-5.1c0,0,0,0,0,0V163.4z"/>
	<path class="st0" d="M897.1,78.8c0-2.8-2.3-5.1-5.2-5.2h-15.3c-2.8,0-5.2,2.3-5.2,5.2V218c0,2.8,2.3,5.1,5.1,5.1c0,0,0,0,0,0h15.3
		c2.8,0,5.1-2.3,5.2-5.1V78.8z"/>
	<path class="st0" d="M965.9,215L932,170.3l33.7-40.2c1.8-2.2,1.6-5.4-0.6-7.3c-0.9-0.8-2.1-1.2-3.3-1.2h-18c-1.5,0-3,0.7-4,1.9
		l-32.9,40c-2.9,3.5-3.1,8.5-0.6,12.3l31.7,45c1,1.4,2.6,2.3,4.3,2.3h19.2c2.8,0,5.2-2.3,5.2-5.1C966.9,216.9,966.5,215.9,965.9,215
		z"/>
	<path class="st1" d="M219,138.7c-3.5-11.5-10.6-21.5-20.2-28.7c15-42-7-88.3-49-103.2C112-6.7,70,9.6,51.2,45.1L7.5,128.2
		c-13,24.8-6.2,55.4,16.2,72.3c-14.9,42.1,7.1,88.2,49.2,103.1c37.7,13.4,79.5-2.9,98.3-38.2l43.8-83.1
		C222,169,223.5,153.2,219,138.7z M25.1,137.5l43.8-83.1c15.8-29.6,52.7-40.8,82.3-24.9c28.8,15.4,40.3,50.8,26,80.2L111.8,234
		c-0.8,1.6-2,3-3.3,4.1l0,0c-0.3,0.3-0.6,0.5-1,0.7l-0.3,0.2l-0.6,0.4l-0.5,0.3l-0.2,0.1c-1.9,0.9-4,1.4-6.1,1.4l0,0
		c-2.2,0-4.3-0.6-6.2-1.6c-6.6-3.5-9.2-11.5-5.9-18.1l64.7-122.9l0.1-0.1c8.6-16.4,2.2-36.7-14.2-45.3c-6.9-3.6-14.8-4.7-22.4-3.1
		c-0.2,0-0.4,0.1-0.7,0.2s-0.7,0.2-1.1,0.3s-0.8,0.2-1.3,0.4l-0.2,0.1c-8.5,2.6-15.6,8.5-19.7,16.4L32.5,181.9
		C20.4,170.4,17.4,152.3,25.1,137.5z M197.2,173l-43.7,83.1c-15.6,29.7-52.3,41.2-82.1,25.6c-29.3-15.3-40.9-51.2-26.3-80.8
		l65.5-124.3c1-2,2.6-3.7,4.5-5l0,0c0.3-0.2,0.7-0.4,1-0.6l0.2-0.1c0.3-0.2,0.7-0.3,1-0.5l0.6-0.2l0.4-0.1c1.4-0.5,2.9-0.7,4.4-0.7
		l0,0c2.2,0,4.4,0.5,6.3,1.6c6.5,3.5,9.1,11.5,5.8,18.1c-1.9,3.6-64.5,122.5-64.8,123.1c-8.6,16.5-2.2,36.8,14.3,45.3
		c9.6,5,21.1,5.1,30.8,0.1l0.2-0.1c1.3-0.6,2.5-1.4,3.6-2.2l0.3-0.2c0.4-0.3,0.9-0.7,1.3-1l0.4-0.3c0.5-0.4,1-0.8,1.5-1.3
		c0.2-0.2,0.4-0.4,0.6-0.6l0.8-0.8l0.8-0.9l0.3-0.4c1.8-2,3.3-4.2,4.6-6.6c0.4-0.8,19.9-37.8,37.8-71.8l22.6-42.8
		C202,140.1,205,158.2,197.2,173L197.2,173z"/>
</g>
</svg>
