<svg xmlns="http://www.w3.org/2000/svg" width="1044.49" height="149.767" viewBox="0 0 1044.49 149.767">
  <g id="logo_giant-ai_color" transform="translate(1)">
    <path id="Pfad_96888" data-name="Pfad 96888" d="M156.214,122.974l.006,0-.006,0V66.353H90.767V104.87A30.763,30.763,0,1,1,83.626,44.2h.311c8.769,0,21.433,2.7,29.958,8.723l33.5-33.851A91.494,91.494,0,0,0,122.845,5.885a103.608,103.608,0,0,0-68.84,0A90.456,90.456,0,0,0,25.9,21.937a75.265,75.265,0,0,0-18.95,23.8,64.6,64.6,0,0,0,0,58.291,75.274,75.274,0,0,0,18.946,23.8A90.49,90.49,0,0,0,54,143.882a103.65,103.65,0,0,0,68.845,0,90.453,90.453,0,0,0,28.106-16.052c1.736-1.47,3.412-3.02,5-4.607h.261Z" transform="translate(-1 0)" fill="#6f91ff"/>
    <rect id="Rechteck_14329" data-name="Rechteck 14329" width="48.05" height="142.895" transform="translate(178.699 2.886)" fill="#6f91ff"/>
    <path id="Pfad_96889" data-name="Pfad 96889" d="M311.4,3.022l-55.293,142.9h53.333l8.7-24.068h52.432l8.579,24.068h53.459L377.191,3.022ZM358.6,88.459H330.1l14.2-39.715Z" transform="translate(-11.489 -0.135)" fill="#6f91ff"/>
    <path id="Pfad_96890" data-name="Pfad 96890" d="M562.873,81.414,521.7,3.021h-59.95v142.9H507.99v-78.7l41.048,78.7h60.435V3.021h-46.6Z" transform="translate(-20.678 -0.135)" fill="#6f91ff"/>
    <path id="Pfad_96891" data-name="Pfad 96891" d="M762.52,3.021H640.894V46.834h35.893v99.083h49.84V46.834H762.52Z" transform="translate(-28.682 -0.135)" fill="#6f91ff"/>
    <path id="Pfad_96892" data-name="Pfad 96892" d="M887.975,2.645,832.891,145H886.03l8.665-23.975h52.221L955.461,145h53.266L953.521,2.645ZM935,87.751H906.617l14.136-39.541Z" transform="translate(-35.351 -0.118)" fill="#6f91ff"/>
    <rect id="Rechteck_14330" data-name="Rechteck 14330" width="47.876" height="142.354" transform="translate(990.837 2.525)" fill="#6f91ff"/>
    <path id="Pfad_96893" data-name="Pfad 96893" d="M757.738,140.138l40.714,10.443,11.061-38.441L768.8,101.7Zm21.685-20.92,11.57,2.954L787.828,133.1l-11.57-2.988Z" transform="translate(-31.993 -4.544)" fill="#6f91ff"/>
    <rect id="Rechteck_14331" data-name="Rechteck 14331" width="1043.535" height="149.767" transform="translate(-0.045)" fill="none"/>
  </g>
</svg>
