<?xml version="1.0" encoding="UTF-8"?>
<svg data-name="Ebene 1" xmlns="http://www.w3.org/2000/svg" viewBox="0 0 20.37 18.553">
  <defs>
  </defs>
  <g data-name="icon trade">
    <g data-name="Pfad 96900">
      <path d="M13.145,18.553c-.602,0-1.059-.483-1.086-1.149v-1.62H3.38v-1.6h10.278v2.197l4.385-3.935-4.381-4.382v2.18h-5.379v1.695c.005.177-.019.67-.343,1.002-.444.456-1.17.381-1.872-.388L0,6.078,6.211.531c.694-.64,1.365-.677,1.771-.242.298.319.314.763.298.999v1.564h8.661v1.6H6.682v-2.197l-4.394,3.924,4.393,4.688.003-2.223h5.379v-1.536c-.009-.242.022-.744.341-1.073.475-.491,1.263-.349,2.021.531l5.945,5.943-6.107,5.479c-.247.244-.667.564-1.117.564ZM7.484,11.683h0ZM12.88,7.305h0Z"/>
    </g>
  </g>
</svg>