<?xml version="1.0" encoding="UTF-8"?>
<svg id="uuid-85b9f5fc-930b-49ee-aff5-85f99a04165d" data-name="Ebene 1" xmlns="http://www.w3.org/2000/svg" width="18.85" height="18.875" viewBox="0 0 18.85 18.875">
  <defs>
    <style>
      .uuid-8644d90e-655d-4c89-be78-fec715617183 {
        fill: #1c2d41;
      }
    </style>
  </defs>
  <path class="uuid-8644d90e-655d-4c89-be78-fec715617183" d="M7,.05H1.6C1.2.05.8.15.5.45.2.75,0,1.15,0,1.55v5.4C0,7.75.6,8.45,1.5,8.45h5.4c.4,0,.771-.121,1-.4.269-.328.5-.7.5-1.1V1.55C8.4.75,7.8.05,6.9.05h.1ZM6.9,6.95h0ZM6.9,1.55v5.4H1.6V1.65h5.4l-.1-.1Z"/>
  <path class="uuid-8644d90e-655d-4c89-be78-fec715617183" d="M8,10.775c-.3-.3-.7-.4-1-.4H1.6c-.4,0-.8.1-1.1.4-.3.3-.5.7-.5,1.1v5.4c0,.8.6,1.5,1.5,1.5h5.4c.8,0,1.5-.7,1.5-1.5v-5.4c0-.4-.1-.8-.4-1.1ZM6.9,17.275H1.6v-5.3h5.3v5.3Z"/>
  <path class="uuid-8644d90e-655d-4c89-be78-fec715617183" d="M18.35.5c-.3-.3-.8-.5-1.1-.5h-5.4c-.8,0-1.5.6-1.5,1.5v5.4c0,.4.1.8.4,1.1s.7.5,1.1.5h5.4c.4,0,.8-.1,1-.4.3-.3.5-.7.5-1.1V1.6c0-.4-.1-.8-.4-1.1h0ZM11.75,1.5h5.4v5.3h-5.3V1.5h-.1ZM17.15,6.9h0Z"/>
  <path class="uuid-8644d90e-655d-4c89-be78-fec715617183" d="M18.05,13.775h-2.7v-2.7c0-.4-.3-.8-.8-.8s-.8.3-.8.8v2.7h-2.7c-.4,0-.8.3-.8.8s.3.8.8.8h2.7v2.7c0,.4.3.8.8.8s.8-.3.8-.8v-2.7h2.7c.4,0,.8-.3.8-.8s-.3-.8-.8-.8Z"/>
</svg>