<svg xmlns="http://www.w3.org/2000/svg" width="24" height="24" viewBox="0 0 16 16"><path fill="#212121" d="M8 0a8 8 0 1 1 0 16A8 8 0 0 1 8 0Zm0 1.333a6.667 6.667 0 1 0 0 13.334A6.667 6.667 0 0 0 8 1.333Zm0 10a1 1 0 1 1 0 2 1 1 0 0 1 0-2zm0-8A2.667 2.667 0 0 1 10.667 6c0 .974-.283 1.52-1.006 2.277l-.352.36c-.503.524-.642.807-.642 1.363a.667.667 0 1 1-1.334 0c0-.974.283-1.52 1.006-2.277l.352-.36c.503-.524.642-.807.642-1.363a1.333 1.333 0 1 0-2.666 0 .667.667 0 1 1-1.334 0A2.667 2.667 0 0 1 8 3.333Z" style="stroke-width:1.33333"/></svg>