<?xml version="1.0" encoding="UTF-8"?>
<svg id="uuid-3c84197f-a93f-4ad7-bcca-9e9ee141a9ee" data-name="Ebene 1" xmlns="http://www.w3.org/2000/svg" width="19.8" height="20.8" viewBox="0 0 19.8 20.8">
  <defs>
    <style>
      .uuid-381681ff-af25-4d8b-9d2a-04fa7f34ce10 {
        fill: #1c2d41;
      }
    </style>
  </defs>
  <g id="uuid-133e3d40-3f0c-4c7c-9c73-df19cdaf4f4d" data-name="icon-marketplace">
    <g id="uuid-f980e79f-c477-49f0-a2f6-fdade03d1d7c" data-name="Gruppe 38298">
      <path id="uuid-3fcff267-4796-447b-8600-29e514ee25a2" data-name="Pfad 93505" class="uuid-381681ff-af25-4d8b-9d2a-04fa7f34ce10" d="M10.6,11c-.4-.4-1-.4-1.4,0l-2.3,2.3c-.4.4-.4,1,0,1.4l2.3,2.3c.4.4,1,.4,1.4,0l2.3-2.3c.4-.4.4-1,0-1.4,0,0-2.3-2.3-2.3-2.3ZM9.9,15.9l-1.8-1.8,1.8-1.8,1.8,1.8-1.8,1.8Z"/>
      <path id="uuid-e926d389-3fde-4bd9-bc05-a0edc5d0bb68" data-name="Pfad 93506" class="uuid-381681ff-af25-4d8b-9d2a-04fa7f34ce10" d="M17.1,0H2.7C1.2,0,0,1.2,0,2.7v15.4c0,1.5,1.2,2.7,2.7,2.7h14.4c1.5,0,2.7-1.2,2.7-2.7V2.7C19.8,1.2,18.6,0,17.1,0h0ZM18.2,2.7v3.6c0,.8-.6,1.5-1.5,1.6-.8,0-1.5-.6-1.6-1.5h0V1.5h1.9c.6,0,1.2.5,1.2,1.2h0ZM13.7,6.3c0,.8-.6,1.5-1.5,1.6-.8,0-1.5-.6-1.6-1.5h0V1.5h3.1v4.8ZM9.2,6.326c0,.8-.8,1.474-1.6,1.474s-1.5-.7-1.5-1.5V1.5h3.1v4.826ZM1.5,2.7c0-.6.5-1.2,1.2-1.2h1.9v4.7c0,.8-.6,1.5-1.5,1.6-.8,0-1.5-.6-1.6-1.5h0v-3.6h0ZM17.1,19.2H2.7c-.6,0-1.2-.5-1.2-1.2v-9.2c1.2.8,2.9.5,3.8-.6,1.1,1.3,3,1.4,4.2.3l.3-.3c1.1,1.3,3,1.4,4.2.3.1-.1.2-.2.3-.3.9,1.1,2.6,1.4,3.8.6v9.2c0,.6-.5,1.2-1.2,1.2h.2Z"/>
    </g>
  </g>
</svg>